<?xml version="1.0" encoding="utf-8"?>
<!-- Generator: Adobe Illustrator 15.1.1, SVG Export Plug-In  -->
<!DOCTYPE svg PUBLIC "-//W3C//DTD SVG 1.1//EN" "http://www.w3.org/Graphics/SVG/1.1/DTD/svg11.dtd" [
	<!ENTITY ns_flows "http://ns.adobe.com/Flows/1.0/">
]>
<svg version="1.1"
	 xmlns="http://www.w3.org/2000/svg" xmlns:xlink="http://www.w3.org/1999/xlink" xmlns:a="http://ns.adobe.com/AdobeSVGViewerExtensions/3.0/"
	 x="0px" y="0px" width="20px" height="20px" viewBox="-6.5 -4.6 20 20"
	 overflow="visible" enable-background="new -6.5 -4.6 20 20" xml:space="preserve">
<defs>
</defs>
<path fill="#BFBFBF" d="M1.1,10.6c-0.1,0.1-0.3,0.2-0.4,0.2C0.3,10.8,0,10,0,9.4C0,9,0.1,8.7,0.4,8.5l3.8-2.9
	c0.1-0.1,0.1-0.1,0.1-0.2c0-0.1,0-0.1-0.1-0.2L0.4,2.3C0.2,2.1,0,1.9,0,1.4C0,0.7,0.3,0,0.7,0C0.9,0,1,0.1,1.1,0.2l5.5,4.2
	c0.3,0.2,0.5,0.5,0.5,1c0,0.5-0.2,0.7-0.5,1L1.1,10.6z"/>
</svg>
